<svg xmlns="http://www.w3.org/2000/svg" width="52" height="44"><path fill="#1f6fec" fill-rule="evenodd" d="M51 0H1a1 1 0 0 0-1 1v42a1 1 0 0 0 1 1h50a1 1 0 0 0 1-1V1a1 1 0 0 0-1-1zm-1 42H2V2h48v40zM15.4 25.8a4.2 4.2 0 1 0 1.4 1.4l7.1-6.9a4.1 4.1 0 0 0 5.3 0l4 3.9a4.2 4.2 0 0 0-.6 2 4.2 4.2 0 1 0 1.8-3.5l-4-3.9a4.2 4.2 0 0 0 .4-1.7 4.2 4.2 0 1 0-8.4 0 4.2 4.2 0 0 0 .3 1.6zM36.8 24a2.2 2.2 0 1 1-2.2 2.2 2.2 2.2 0 0 1 2.2-2.2zm-23.6 7.6a2.2 2.2 0 1 1 2.2-2.2 2.2 2.2 0 0 1-2.2 2.2zM26.6 15a2.2 2.2 0 1 1-2.2 2.2 2.2 2.2 0 0 1 2.2-2.2zM5 15.9a1 1 0 0 0 1-1V6h11.8a1 1 0 1 0 0-2H5a1 1 0 0 0-1 1v10a1 1 0 0 0 1 1zM37.3 39a1 1 0 0 0 1 1H47a1 1 0 0 0 1-1v-7.1a1 1 0 0 0-2 0V38h-7.7a1 1 0 0 0-1 1z" data-name="Shape 11 copy"/></svg>