<svg xmlns="http://www.w3.org/2000/svg" width="624.4" height="207.5"><path fill="#f1f2f6" fill-rule="evenodd" d="M622.5 39.4c-7.5 2.5-15 5-22.6 7q-11.4 3-22.7 6.5a331.5 331.5 0 0 0-44 17.3c-4.8 2.3-9-5-4.1-7.3a383.5 383.5 0 0 1 45.2-18.7q11.4-3.9 23.1-6.8a127.2 127.2 0 0 1 24.4-3.3c3.2-.2 3.5 4.4.7 5.3zm-117-7c-3.7 1.7-7-3.7-3.2-5.4 16.2-7.6 29.3-21 46.4-26.8 2.7-1 3.9 2.8 1.8 4.3-14.4 10.1-28.7 20.8-45 28zm-386.6 0c-16.3-7-30.6-17.8-45-28C71.9 3 73-.7 75.7.3 92.7 6 105.9 19.4 122 27c3.8 1.7.5 7.1-3.2 5.5zM91 70.3a331.7 331.7 0 0 0-43.9-17.3Q36 49.3 24.5 46.4c-7.7-2-15.1-4.5-22.6-7-2.8-.9-2.4-5.5.7-5.3A127.2 127.2 0 0 1 27 37.4q11.7 3 23.2 6.8a383 383 0 0 1 45.1 18.7c5 2.4.7 9.6-4.2 7.3zm-65.1 50c5.5-1.6 11-3 16.7-4.2a180.3 180.3 0 0 1 34.4-4.1c5.6 0 5.6 8.6 0 8.7a169 169 0 0 0-33 4.2l-16.8 3.6a137.9 137.9 0 0 1-15.6 3.1c-3.1.4-4.5-4.7-1.6-6a108.1 108.1 0 0 1 15.9-5.3zm8.6 71.9a133.6 133.6 0 0 1 12-9A166.2 166.2 0 0 1 72 169.4c2.1-.9 4.5-.6 5.8 1.5 1 1.9.5 4.8-1.5 5.8A184.4 184.4 0 0 0 52 190.6L40 199c-1.9 1.4-3.8 2.4-5.6 3.8a53.9 53.9 0 0 1-6.5 4.3c-2.4 1.2-5.6-1.4-4-4a57.7 57.7 0 0 1 10.6-11.1zm512.7-80.2a180.4 180.4 0 0 1 34.4 4c5.8 1.3 11.5 2.8 17.2 4.4a107.1 107.1 0 0 1 15.4 5.2c2.9 1.3 1.5 6.4-1.6 6a144 144 0 0 1-16-3.2c-5.5-1.3-11-2.4-16.4-3.5a169 169 0 0 0-33-4.2c-5.6 0-5.6-8.7 0-8.7zm5 57.5a166.1 166.1 0 0 1 25.5 13.7 132.8 132.8 0 0 1 12 9 58 58 0 0 1 10.5 11.2c1.7 2.5-1.5 5.1-3.9 3.9a54.6 54.6 0 0 1-6.5-4.3c-2-1.5-4-2.6-6-4-3.7-3-7.7-5.6-11.6-8.3a185 185 0 0 0-24.2-14c-2-1-2.5-3.8-1.5-5.7 1.3-2.1 3.7-2.4 5.8-1.5z"/></svg>