<svg xmlns="http://www.w3.org/2000/svg" xmlns:xlink="http://www.w3.org/1999/xlink" viewBox="0 0 235.7 33.1"><defs><linearGradient id="b" x1="40.3" x2="48.7" y1="18.8" y2="14.3" gradientUnits="userSpaceOnUse"><stop offset="0" stop-color="#afadad"/><stop offset="1" stop-color="#7a7979"/></linearGradient><linearGradient id="a" x1="38.6" x2="77" y1="4.5" y2="28.5" gradientUnits="userSpaceOnUse"><stop offset="0" stop-color="#62a1ff"/><stop offset="1" stop-color="#0f51b3"/></linearGradient><linearGradient id="c" x1="12.5" x2="47" y1="16.5" y2="16.5" xlink:href="#a"/><linearGradient id="d" x1="2.5" x2="21.3" y1="34.9" y2="9.8" xlink:href="#b"/></defs><g data-name="Layer 2"><g data-name="Layer 1"><path fill="#464545" fill-rule="evenodd" d="M80 26.5V6.6h3.7l9.4 12 9.1-12h3.7v19.9h-4.2V14.2v-.9-1.2l-.3.7a5.5 5.5 0 0 1-.3.5 6 6 0 0 1-.5.8l-7.5 10h-.9l-7.5-10a7.5 7.5 0 0 1-.7-1 4.7 4.7 0 0 1-.5-1l.2 1.1v13.3zm38.7-8h8.7l-4.3-8-4.4 8zm-8.9 8L121 6.6h4.5l11.4 19.9h-5.2l-2.4-4.4h-12.6l-2.4 4.4zM157.4 10H145v12.7h12.5v-4.3l4.6 1v2.3c0 1.8-.3 3-1 3.7s-2 1-3.9 1h-11.9c-1.9 0-3.2-.3-3.9-1s-1-1.9-1-3.7V11.3c0-1.8.3-3 1-3.7s2-1 4-1H157c2 0 3.2.3 4 1s1 2 1 3.7v1.9l-4.7.7v-3.8zm21 0v16.4h-4.6V10h-9.1V6.6h23v3.5zM190 26.5V6.6h20.4V10h-15.8v4.4h9.2v3.4h-9.2v5h16v3.7zM229.2 10h-10.4v5.3h10.4a2.9 2.9 0 0 0 1.6-.4 1.5 1.5 0 0 0 .4-1.2v-2a1.6 1.6 0 0 0-.4-1.3 2.9 2.9 0 0 0-1.6-.4zm-15 16.5V6.6h17a5.5 5.5 0 0 1 3.4.9 3.7 3.7 0 0 1 1 3v4.4a3.7 3.7 0 0 1-1 3 5.3 5.3 0 0 1-3.4.9h-12.4v7.7z"/><path fill="url(#b)" d="M42.3 4a1.7 1.7 0 0 1 1.3.8 7.7 7.7 0 0 1 1 2l6.1 14.6a.5.5 0 0 1 0 .3c-.6 1.6-2.6 6-3 6.7a2 2 0 0 1-1 .6l-.6-.2a2.6 2.6 0 0 1-1.1-1.2l-6.7-16a.3.3 0 0 1 0-.2L41 5.3a3.9 3.9 0 0 1 .8-1 1.3 1.3 0 0 1 .5-.2z"/><path fill="url(#a)" d="M41.4 0h16.2a3.3 3.3 0 0 1 1.5.4 4.3 4.3 0 0 1 1.8 1.9L74.2 33H57.6a.4.4 0 0 1-.4-.3L45.4 5.1c-.4-.9-.7-1.8-1.2-2.6a4.7 4.7 0 0 0-2-2.2l-.8-.3z"/><path fill="url(#c)" d="M47 33H30.5h-.1a3.5 3.5 0 0 1-1.7-.8 6.1 6.1 0 0 1-1.6-2.3L15.9 3.6a13 13 0 0 0-1.2-2.1A4 4 0 0 0 12.5 0h16.3a3.5 3.5 0 0 1 2 .8 6.5 6.5 0 0 1 1.7 2.6L43 27.6l1.5 3.2a4.2 4.2 0 0 0 1.9 2c.3 0 .5.2.8.3z"/><path fill="url(#d)" d="M0 33l1-2.2 3.8-9.2L9 12l2.6-6a3.6 3.6 0 0 1 1.2-1.7 1 1 0 0 1 1.3 0 4.3 4.3 0 0 1 1 1.1l1.3 3 4.3 10.3 1 2.5a.7.7 0 0 1 0 .5L18.4 29 17 32.7c0 .2-.2.3-.4.3H0z"/></g></g></svg>