<svg xmlns="http://www.w3.org/2000/svg" width="18" height="18"><path fill="#1e6feb" fill-rule="evenodd" d="M18 14.2a.9.9 0 0 1-.3.8l-2.5 2.5a1.4 1.4 0 0 1-.5.3 2 2 0 0 1-.5.2.7.7 0 0 0-.1 0h-.3a7.9 7.9 0 0 1-1.1-.1 8.5 8.5 0 0 1-2-.6A16.2 16.2 0 0 1 8 15.8 19.4 19.4 0 0 1 5 13.1a21.2 21.2 0 0 1-2.2-2.5 18 18 0 0 1-1.5-2.2 12 12 0 0 1-.8-1.8A10 10 0 0 1 .1 5a4.8 4.8 0 0 1-.1-1v-.3a1.8 1.8 0 0 1 .2-.5 1.4 1.4 0 0 1 .3-.5L3.1.3a.8.8 0 0 1 .6-.3.7.7 0 0 1 .4.1 1.4 1.4 0 0 1 .3.4l2 3.9a1 1 0 0 1 .2.6 1.2 1.2 0 0 1-.4.6l-.9 1a.3.3 0 0 0 0 .1.5.5 0 0 0 0 .1 3.4 3.4 0 0 0 .3 1 8 8 0 0 0 .7 1 12 12 0 0 0 1.3 1.6 11.7 11.7 0 0 0 1.5 1.4 8 8 0 0 0 1.1.7 3 3 0 0 0 .7.2h.3a.4.4 0 0 0 .1 0 .5.5 0 0 0 .1 0l1.1-1.1a1.2 1.2 0 0 1 .8-.3 1 1 0 0 1 .5.1l3.7 2.2a1 1 0 0 1 .5.6z" data-name="Forma 1 copy"/></svg>