<svg id="Layer_1" xmlns="http://www.w3.org/2000/svg" viewBox="0 0 426.8 353.9"><style>.st0{fill:#9c9c9c}.st1{fill:#a7a7a7}.st2{fill:#959595}.st3{fill:#888}.st5{fill:#c9c9c9}.st6{fill:#e8e8e8}.st7{fill:#e0e0e0}.st8{fill:#d6d6d6}.st9{opacity:.5}.st10{fill:#efefef}.st12{fill:#ebebeb}.st13{fill:#a6a6a6}.st14{fill:#8e8e8e}.st15{fill:#6f6f6f}.st17{fill:#5e5e5e}.st21{fill:#9e9e9e}.st27{fill:#bebebe}.st28{fill:#b0b0b0}.st30{fill:#d2d2d2}</style><g id="Attic_x5F_Home_x5F_addition"><path class="st0" d="M162.7 51.8l227.7 44.4v62.2H162.7z"/><path class="st1" d="M237.8 90.6h122.4v8.6H237.8zm-59.5 57.8h126.9v8.6H178.3zM165.2 71h93.7v8.6h-93.7zm3.9 37.6h107.5v8.6H169.1zm67.7 25.9h145.7v8.6H236.8z"/><path class="st2" d="M276.6 119.1h107.5v6.5H276.6zm-73.9-18.5h107.5v6.5H202.7z"/><path class="st3" d="M281.1 107h107.5v6.5H281.1z"/><path class="st2" d="M307.2 144.8h83.7v6.5h-83.7zM168 88.5h68.9V95H168z"/><path class="st3" d="M162.7 100.6h38.6v6.5h-38.6zm66.9-19.8h72.8v6.5h-72.8zm88.5 46.4h72.8v6.5h-72.8zm-154.2-3.3h97.8v6.5h-97.8z"/><path d="M426.8 71.1L106.6 11.9V2c0-1.2 1.1-2.1 2.3-1.9l316.3 58.4c.9.2 1.6 1 1.6 1.9v10.7z" fill="#d9d9d9"/><path class="st5" d="M426.8 71.1l-36.4 34v-8.9L162.7 51.8v45.1h-32.6l-23.5-85z"/><path class="st6" d="M220.7 96.9h-52.4c-.2 0-.3-.2-.3-.3V67.4c0-.2.2-.3.3-.3h52.4c.2 0 .3.2.3.3v29.2c.1.2-.1.3-.3.3z"/><path class="st5" d="M220.8 97.1h-52.5c-.3 0-.5-.2-.5-.5V67.3c0-.3.2-.5.5-.5h52.5c.3 0 .5.2.5.5v29.4c0 .2-.2.4-.5.4zm-52.5-29.9c-.1 0-.1.1 0 0l-.1 29.4s0 .1.1.1h52.5s.1 0 .1-.1V67.3s0-.1-.1-.1h-52.5z"/><path transform="rotate(90 206.727 83.984)" class="st7" d="M193.8 73.7h25.9v20.7h-25.9z"/><path transform="rotate(90 182.325 83.985)" class="st7" d="M169.4 73.7h25.9v20.7h-25.9z"/><path class="st8" d="M198.4 75.5h18.7V71h-20.7v25.9h2zm-24.4 0h18.7V71H172v25.9h2z"/><g class="st9"><path class="st10" d="M201.6 71c-1.7 1-3.5 2-5.2 3.1v4.4c4.1-2.5 8.2-5 12.2-7.5h-7z"/></g><g class="st9"><path class="st10" d="M217.1 72.3c-6.9 4.1-13.8 8.2-20.7 12.1v8.5c6.9-3.4 13.8-6.8 20.7-10.3V72.3z"/></g><g class="st9"><path class="st10" d="M192.7 86.6c-6.3 3.6-12.7 7.1-19.2 10.4h14.8c1.5-.7 3-1.4 4.4-2.2v-8.2z"/></g><g class="st9"><path class="st10" d="M192.7 76.4c-6.8 4.1-13.6 8.3-20.7 12.1v5.2l20.7-12.9v-4.4z"/></g><path fill="#8d8d8d" d="M163.1 99.2h-.8V51.3l.5.1 227.7 44.4-.2.8-227.2-44.3z"/><path class="st6" d="M333.2 102.2h36.3v53.4h-36.3z"/><path class="st5" d="M369.8 155.8H333V102h36.7v53.8zm-36.4-.4h35.9v-53h-35.9v53z"/><path transform="rotate(90 351.41 146.935)" class="st7" d="M344.4 130.4h14.1v33.1h-14.1z"/><path transform="rotate(90 351.409 120.753)" class="st7" d="M334.5 104.2h33.9v33.1h-33.9z"/><path class="st8" d="M336.5 142.9H368v-3h-33.2V154h1.7zm0-36.1H368v-3h-33.2v33.9h1.7z"/><path class="st6" d="M294 102.2h36.3v53.4H294z"/><path class="st5" d="M330.6 155.8h-36.7V102h36.7v53.8zm-36.4-.4h35.9v-53h-35.9v53z"/><path transform="rotate(90 312.2 146.935)" class="st7" d="M305.2 130.4h14.1v33.1h-14.1z"/><path transform="rotate(90 312.2 120.753)" class="st7" d="M295.2 104.2h33.9v33.1h-33.9z"/><path class="st8" d="M297.2 142.9h31.6v-3h-33.2V154h1.6zm0-36.1h31.6v-3h-33.2v33.9h1.6z"/><path class="st6" d="M254.8 102.2h36.3v53.4h-36.3z"/><path class="st5" d="M291.4 155.8h-36.7V102h36.7v53.8zm-36.4-.4h36v-53h-36v53z"/><path transform="rotate(90 272.992 146.935)" class="st7" d="M266 130.4h14.1v33.1H266z"/><path transform="rotate(90 272.992 120.753)" class="st7" d="M256 104.2h33.9v33.1H256z"/><path class="st8" d="M258 142.9h31.6v-3h-33.2V154h1.6zm0-36.1h31.6v-3h-33.2v33.9h1.6z"/><g class="st9"><path class="st10" d="M334.8 139.9v3.4c2-1.1 4-2.3 6-3.4h-6z"/></g><g class="st9"><path class="st10" d="M345.1 103.8c-3.4 2.2-6.8 4.4-10.3 6.7v5.6c6-4.1 12-8.2 18.1-12.3h-7.8z"/></g><g class="st9"><path class="st10" d="M368 113.8c-11 6.9-22.1 13.8-33.1 20.7v3.2h9.9c7.7-4.3 15.5-8.6 23.2-13v-10.9z"/></g><g class="st9"><path class="st10" d="M295.6 139.9v4.2l5.7-4.2h-5.7z"/></g><g class="st9"><path class="st10" d="M328.8 139.9h-2.7c-7.7 4.7-15.4 9.5-23.2 14.1h13.6c4.1-2.5 8.2-4.9 12.3-7.2v-6.9z"/></g><path class="st7" d="M295.6 103.8v3.7c1.6-1.2 3.3-2.5 4.9-3.7h-4.9z"/><g class="st9"><path class="st10" d="M328.8 120.3v-5.8c-11.1 7.4-22.1 14.8-33.1 22.3v.9h8.7c8-5.9 16.2-11.7 24.4-17.4z"/></g><g class="st9"><path class="st10" d="M300.5 103.8c-1.6 1.2-3.3 2.5-4.9 3.7v18.7c10.7-7.5 21.3-15 32-22.4h-27.1z"/></g><g class="st9"><path class="st10" d="M256.4 139.9v13.5c6.6-4.4 13.2-8.9 19.7-13.5h-19.7z"/></g><g class="st9"><path class="st10" d="M289.6 141c-6.3 4.3-12.6 8.6-18.8 13h11.6l7.2-5.4V141z"/></g><g class="st9"><path class="st10" d="M289.6 112.1c-11 8.4-21.8 17-32.7 25.6h22.4c3.4-2.4 6.9-4.8 10.3-7.2v-18.4z"/></g></g><g id="Multi_x5F_story_x5F_home_x5F_additions"><path class="st12" d="M252.4 158.4h138v195.2h-138zm138 67.1h-138"/><path class="st8" d="M252.4 225.3h138v.4h-138z"/><path class="st12" d="M375.5 158.4v195.3"/><path class="st8" d="M375.3 158.4h.4v195.2h-.4z"/><path class="st12" d="M270.7 158.4v195.3"/><path class="st8" d="M270.5 158.4h.4v195.2h-.4z"/><path class="st13" d="M280.3 280.5h84.6v73.2h-84.6z"/><path class="st14" d="M365.1 353.7h-85v-73.4h85v73.4zm-84.6-.2h84.2v-72.8h-84.2v72.8z"/><path transform="rotate(90 322.627 317.882)" class="st15" d="M286.8 277.2h71.6v81.4h-71.6z"/><path fill="#e3e3e3" d="M296.8 210.4H368v2.5h-71.2z"/><path class="st13" d="M296.8 179.2h71.1v31.2h-71.1z"/><path class="st14" d="M368.1 210.6h-71.5V179h71.5v31.6zm-71.1-.4h70.7v-30.8H297v30.8z"/><path transform="rotate(90 352.719 194.831)" class="st7" d="M338.7 181.3h28v27.2h-28z"/><path transform="rotate(90 311.985 194.831)" class="st7" d="M298 181.3h28v27.2h-28z"/><path class="st8" d="M341.6 185.3h24.7v-4.5h-27.2v28h2.5zm-40.7 0h24.7v-4.5h-27.2v28h2.5z"/><g class="st9"><path class="st10" d="M339.1 180.8v8.7l17.1-8.7h-17.1z"/></g><g class="st9"><path class="st10" d="M366.3 183.1c-9 4.9-18.1 9.6-27.2 14.5v6.3c9-5.5 18-10.8 27.2-15.9v-4.9z"/></g><g class="st9"><path class="st10" d="M325.6 180.8h-5c-7.5 4.4-14.8 9.1-22.1 14v13.9h.4c9.1-3.9 18-8.1 26.8-12.4v-15.5z"/></g><g class="st9"><path class="st10" d="M325.6 205.2c-2 1.2-4.1 2.4-6.1 3.6h6.1v-3.6z"/></g><path class="st14" d="M332.2 179.2h.4v31.2h-.4z"/><path class="st15" d="M282 288.6h81.3"/><path class="st17" d="M282 288.4h81.4v.4H282z"/><path class="st15" d="M282 282.1h81.3"/><path class="st17" d="M282 281.9h81.4v.4H282z"/><path class="st15" d="M282 301.6h81.3"/><path class="st17" d="M282 301.4h81.4v.4H282z"/><path class="st15" d="M282 295.1h81.3"/><path class="st17" d="M282 294.9h81.4v.4H282z"/><path class="st15" d="M282 314.6h81.3"/><path class="st17" d="M282 314.4h81.4v.4H282z"/><path class="st15" d="M282 308.1h81.3"/><path class="st17" d="M282 307.9h81.4v.4H282z"/><path class="st15" d="M282 327.6h81.3"/><path class="st17" d="M282 327.4h81.4v.4H282z"/><path class="st15" d="M282 321.1h81.3"/><path class="st17" d="M282 320.9h81.4v.4H282z"/><path class="st15" d="M282 340.7h81.3"/><path class="st17" d="M282 340.5h81.4v.4H282z"/><path class="st15" d="M282 334.2h81.3"/><path class="st17" d="M282 334h81.4v.4H282z"/><path class="st15" d="M282 347.2h81.3"/><path class="st17" d="M282 347h81.4v.4H282z"/><path d="M333.4 276.8h-20.8v-2c0-.7.6-1.2 1.2-1.2l17.5-1c.7 0 2.1 1.5 2.1 2.2v2z" fill="#dedede"/><path class="st13" d="M333 275.7h-20.8v-.2c0-1.7 1.4-3.1 3.1-3.1h14.5c1.7 0 3.1 1.4 3.1 3.1v.2z"/></g><g id="Secon_x5F_story_x5F_additions"><path fill="#c6c6c6" d="M258.5 83.6H5.4v13.3h2.4V86.1h83.6v10.8h2.4V86.1h78.7v10.8h2.4V86.1h83.6v10.8h2.4V83.6z"/><path d="M261.1 97.1h-2.8V86.3h-83.2v10.8h-2.8V86.3H94v10.8h-2.8V86.3H8v10.8H5.2V83.4h255.9v13.7zm-2.4-.4h2v-13H5.6v13h2V85.9h84v10.8h2V85.9h79v10.8h2V85.9h84v10.8z" fill="#b1b1b1"/><path class="st13" d="M.3 96.9h263.1v10.5H.3z"/><path class="st2" d="M236.5 193.9h-77.6v-73.8h77.6v73.8zm-77-.6h76.4v-72.6h-76.4v72.6z"/><path class="st6" d="M163.2 124.4h69v65.2h-69z"/><path class="st13" d="M260.9 96.9H5.4v152h153v-28.4h102.5z"/><path class="st2" d="M263.7 107.8H0V96.6h263.7v11.2zM.6 107.2h262.5v-9.9H.6v9.9z"/><path class="st21" d="M5.4 107.5h255.5v7.5H5.4zm19.9 13.1h120.9v113.7H25.3z"/><path class="st2" d="M146.3 234.9h-121V120.1h121v114.8zm-120.4-.6h119.8V120.7H25.9v113.6z"/><path class="st6" d="M29.6 124.4H142v106.2H29.6z"/><path class="st5" d="M142.1 230.8H29.4V124.2h112.8v106.6zm-112.3-.4h112V124.6h-112v105.8z"/><path class="st7" d="M33.6 128.4h50.3v35.1H33.6zm54.1 0H138v35.1H87.7zM33.6 168h50.3v58.5H33.6zm54.1 0H138v58.5H87.7z"/><path class="st8" d="M37.6 135.4h46.2v-7H33.6v35.1h4zm54.1 0h46.2v-7H87.7v35.1h4zM37.6 175h46.2v-7H33.6v58.5h4zm54.1 0h46.2v-7H87.7v58.5h4z"/><g class="st9"><path class="st10" d="M83.8 162.4V132c-12.3 10.2-24.4 20.7-36.3 31.4h35.2c.4-.3.8-.6 1.1-1z"/></g><path class="st7" d="M83.8 162.4c-.4.3-.8.7-1.1 1h1.1v-1zm3.9-34v.5c.2-.2.4-.3.6-.5h-.6z"/><g class="st9"><path class="st10" d="M88.3 128.4c-.2.2-.4.3-.6.5V159c11.2-10.2 22.4-20.5 33.7-30.6H88.3z"/></g><g class="st9"><path class="st10" d="M137.9 148.1v-12c-11.4 9-22.6 18.1-33.8 27.3h14.5c6.4-5.1 12.9-10.2 19.3-15.3z"/></g><g class="st9"><path class="st10" d="M42.5 168c-3 2.7-5.9 5.4-8.9 8v28.8c15.2-11.6 29.7-24.1 44-36.8H42.5z"/></g><g class="st9"><path class="st10" d="M83.8 180.3c-16.8 14-33.5 28.1-50.3 42.1v4.1h6.6c14.7-11.6 29.2-23.3 43.6-35v-11.2z"/></g><g class="st9"><path class="st10" d="M83.8 220.5c-3 2-6.1 4-9.2 6h9.2v-6z"/></g><g class="st9"><path class="st10" d="M98.6 168c-3.7 3-7.3 6-10.9 9.1v11.3c8.4-6.8 16.8-13.6 25.3-20.4H98.6z"/></g><g class="st9"><path class="st10" d="M137.9 182.6c-16.7 11.9-33.3 23.8-50.3 35.3v8.6h18.2c10.5-7.1 21.2-14 32-20.8v-23.1z"/></g><path transform="rotate(90 197.681 156.966)" class="st21" d="M161.1 118.5h73.2v77h-73.2z"/><path class="st5" d="M232.4 189.8H163v-65.6h69.4v65.6zm-69-.4H232v-64.8h-68.6v64.8z"/><path class="st7" d="M165.6 126.8h30.9v21.5h-30.9zm33.3 0h30.9v21.5h-30.9zm-33.3 24.4h30.9v35.9h-30.9zm33.3 0h30.9v35.9h-30.9z"/><path class="st8" d="M168.1 131.1h28.4v-4.3h-30.9v21.6h2.5zm33.2 0h28.4v-4.3h-30.8v21.6h2.4zm-33.2 24.4h28.4v-4.3h-30.9v35.9h2.5zm33.2 0h28.4v-4.3h-30.8v35.9h2.4z"/><g class="st9"><path class="st10" d="M196.5 147.7V129c-7.6 6.3-15 12.7-22.3 19.3h21.6c.2-.1.5-.3.7-.6z"/></g><path class="st7" d="M196.5 147.7c-.2.2-.5.4-.7.6h.7v-.6zm2.4-20.9v.3c.1-.1.3-.2.4-.3h-.4z"/><g class="st9"><path class="st10" d="M199.2 126.8c-.1.1-.3.2-.4.3v18.5c6.9-6.2 13.8-12.6 20.7-18.8h-20.3z"/></g><g class="st9"><path class="st10" d="M229.7 139v-7.4c-7 5.5-13.9 11.1-20.7 16.8h8.9c3.9-3.2 7.8-6.3 11.8-9.4z"/></g><g class="st9"><path class="st10" d="M171.1 151.2c-1.8 1.6-3.6 3.3-5.4 4.9v17.7c9.3-7.1 18.2-14.8 27-22.6h-21.6z"/></g><g class="st9"><path class="st10" d="M196.5 158.7c-10.3 8.6-20.6 17.3-30.9 25.9v2.5h4.1c9-7.1 17.9-14.3 26.8-21.5v-6.9z"/></g><g class="st9"><path class="st10" d="M196.5 183.4c-1.9 1.2-3.8 2.5-5.6 3.7h5.6v-3.7z"/></g><g class="st9"><path class="st10" d="M205.6 151.2c-2.2 1.9-4.5 3.7-6.7 5.6v7c5.2-4.2 10.3-8.4 15.5-12.5h-8.8z"/></g><g class="st9"><path class="st10" d="M229.7 160.1c-10.2 7.3-20.4 14.6-30.9 21.7v5.3H210c6.5-4.4 13-8.6 19.7-12.8v-14.2z"/></g></g><g id="First_x5F_floor_x5F_additions"><path class="st13" d="M224.4 215h36.5v87.6h-36.5z"/><path fill="#b3b3b3" d="M158.4 215h138.4v5.5H158.4z"/><path fill="#9a9a9a" d="M158.4 220.5l6.8 10.9h95.7v9.1h14.6l21.4-20z"/><path class="st12" d="M239.5 236.2h9.4v15.5h-9.4z"/><path transform="rotate(90 244.174 243.955)" class="st7" d="M238 240.9h12.3v6.2H238z"/><path class="st12" d="M165.2 231.4h59.2v71.2h-59.2z"/><path class="st12" d="M165.2 231.4h59.2v71.2h-59.2z"/><path class="st8" d="M224.6 302.9H165v-71.6h59.6v71.6zm-59.2-.4h58.8v-70.8h-58.8v70.8z"/><path d="M165.2 231.4h60.7v5.7h-60.7zm22.1 5.7h4.8v65.5h-4.8z" fill="#f4f4f4"/><path d="M170 241.8h13.1v54.5H170zm26.9 0h21.8v54.5h-21.8z" fill="#dbdbdb"/><path d="M173.3 245.9h9.7v-4.1h-13v54.4h3.3zm26.9 0h18.5v-4.1h-21.8v54.4h3.3z" fill="#d1d1d1"/><path class="st27" d="M260.9 304.6H158.4l6.8-1.9h95.7z"/><path class="st28" d="M158.4 304.6h92.3v5.9h-92.3z"/><path class="st27" d="M158.4 310.5h92.3v3h-92.3z"/><path class="st28" d="M158.4 313.5h92.3v5.9h-92.3z"/><path class="st27" d="M158.4 319.4h92.3v2.9h-92.3z"/><path class="st28" d="M158.4 322.3h92.3v5.9h-92.3z"/><path class="st27" d="M158.4 328.2h92.3v3h-92.3z"/><path class="st28" d="M158.4 331.2h92.3v5.9h-92.3z"/><path class="st27" d="M158.4 337.1h92.3v2.9h-92.3z"/><path class="st28" d="M158.4 340h92.3v5.9h-92.3zm0 8.9h92.3v4.8h-92.3z"/><path class="st27" d="M158.4 345.9h92.3v2.9h-92.3z"/><path fill="#919191" d="M158.4 220.5l6.8 10.9v71.3l-6.8 1.9z"/><g class="st9"><path class="st10" d="M183 294.5c-.7.6-1.4 1.1-2.2 1.7h2.2v-1.7z"/></g><g class="st9"><path class="st10" d="M183 264.8c-4.3 4-8.6 8-13.1 11.9v16.8c4.3-4.6 8.6-9.1 13.1-13.5v-15.2z"/></g><g class="st9"><path class="st10" d="M218.7 241.8h-12c-3.3 3.2-6.5 6.4-9.8 9.6v15.3c7.1-6.6 14.4-13 21.8-19.3v-5.6z"/></g><g class="st9"><path class="st10" d="M218.7 266.2c-7.3 5.8-14.6 11.6-21.8 17.3v7.4c7.3-5.6 14.6-11.1 21.8-16.6v-8.1z"/></g><path class="st12" d="M225.9 237.1h-60.7"/><path class="st8" d="M165.2 236.9h60.7v.4h-60.7z"/><path class="st12" d="M189.7 302.1v-65"/><path class="st8" d="M189.5 237.1h.4v65h-.4z"/><path class="st12" d="M187.3 302.1v-65"/><path class="st8" d="M187.1 237.1h.4v65h-.4z"/><path class="st12" d="M192.1 302.1v-65"/><path class="st8" d="M191.9 237.1h.4v65h-.4z"/><path class="st30" d="M250.7 304.6h10.2v28.8h-10.2z"/><path class="st12" d="M24.6 248.9h133.8v55.6H24.6z"/><path class="st13" d="M50.2 258.8h71.1V290H50.2z"/><path class="st14" d="M121.5 290.2H50v-31.6h71.5v31.6zm-71.1-.4h70.7V259H50.4v30.8z"/><path transform="rotate(90 106.095 274.418)" class="st7" d="M92.1 260.8h28V288h-28z"/><path transform="rotate(90 65.36 274.418)" class="st7" d="M51.4 260.8h28V288h-28z"/><path class="st8" d="M95 264.9h24.7v-4.5H92.5v28H95zm-40.7 0h24.6v-4.5H51.8v28h2.5z"/><g class="st9"><path class="st10" d="M92.5 260.4v8.7l17.1-8.7H92.5z"/></g><g class="st9"><path class="st10" d="M119.7 262.7c-9 4.9-18.1 9.6-27.2 14.5v6.3c9-5.5 18-10.8 27.2-15.9v-4.9z"/></g><g class="st9"><path class="st10" d="M78.9 260.4h-5c-7.5 4.4-14.8 9.1-22.1 14v13.9h.4c9.1-3.9 18-8.1 26.8-12.4v-15.5z"/></g><g class="st9"><path class="st10" d="M78.9 284.8c-2 1.2-4.1 2.4-6.1 3.6h6.1v-3.6z"/></g><path class="st14" d="M85.5 258.8h.4V290h-.4z"/><path class="st12" d="M158.3 296.2H24.6"/><path class="st8" d="M24.6 296h133.7v.4H24.6z"/><path class="st12" d="M158.3 253.7H24.6"/><path class="st8" d="M24.6 253.5h133.7v.4H24.6z"/><path class="st0" d="M14.3 304.6h133.8v49.1H14.3z"/><path class="st3" d="M13.8 329.1h61.5V340H13.8zm19.5-15.2h45.6v6H33.3zm69.1-5.5h44.1v9h-44.1z"/><path class="st1" d="M38.3 320.8h81.4v7.6H38.3zm-24.5 28.1h81.4v4.6H13.8z"/><path class="st2" d="M68.7 340.9H119v6.5H68.7zm25.2-10.7h50.3v6.5H93.9zm-80.1-23.8h50.3v6.5H13.8z"/><path transform="rotate(-180 153.295 318.986)" class="st30" d="M148.2 304.6h10.3v28.8h-10.3z"/><path class="st27" d="M158.5 353.9h-13.8v-20.7h13.8v20.7zm-13.4-.4h13v-19.9h-13v19.9z"/><path transform="rotate(-180 151.633 343.55)" class="st30" d="M144.9 333.4h13.4v20.3h-13.4z"/><path class="st27" d="M264.3 353.9h-13.8v-20.7h13.8v20.7zm-13.4-.4h13v-19.9h-13v19.9z"/><path class="st30" d="M250.7 333.4h13.4v20.3h-13.4z"/></g></svg>