<svg xmlns="http://www.w3.org/2000/svg" width="70" height="49"><path fill="#376ef3" fill-rule="evenodd" d="M66 42V4.4A4.4 4.4 0 0 0 61.6 0H8.4A4.4 4.4 0 0 0 4 4.4V42H0v2.3A4.7 4.7 0 0 0 4.7 49h60.6a4.7 4.7 0 0 0 4.7-4.7V42h-4zM6 4.4A2.4 2.4 0 0 1 8.4 2h53.2A2.4 2.4 0 0 1 64 4.4V42h-1V4a1 1 0 0 0-1-1H8a1 1 0 0 0-1 1v38H6V4.4zM61 42H39.5l-1 1h-7l-1-1H9V5h52v37zm7 2.3a2.7 2.7 0 0 1-2.7 2.7H4.7A2.7 2.7 0 0 1 2 44.3V44h27.6l1 1h8.8l1-1H68v.3zM31 34h2v-4h5v-2h-5v-3h6a6 6 0 0 0 0-12h-7a1 1 0 0 0-1 1v9h-3v2h3v3h-3v2h3v4zm2-19h6a4 4 0 0 1 0 8h-6v-8z" data-name="Shape 3 copy"/></svg>