<svg xmlns="http://www.w3.org/2000/svg" width="50" height="55"><path fill="#376ef3" fill-rule="evenodd" d="M30 17.7v-1.2a4.4 4.4 0 0 0-4.4-4.3h-.1a4.5 4.5 0 0 0 0 9 4.4 4.4 0 0 0 2.3-.6c-.4 2.3-1.4 3.2-3.3 3.2h-1.3a1 1 0 1 0 0 2h1.3c5.5 0 5.5-5.7 5.5-8.1zm-4.5 1.5a2.5 2.5 0 0 1 0-5h.1a2.4 2.4 0 0 1 2.4 2.4v.1a2.5 2.5 0 0 1-2.5 2.5zM49 10h-6V5.9A3.9 3.9 0 0 0 45.8 2V1a1 1 0 0 0-1-1H4.4a1 1 0 0 0-1 1v1A3.8 3.8 0 0 0 7 6v4H1a1 1 0 0 0-1 1v9c0 5.2 3.5 9.5 8.3 10a19.3 19.3 0 0 0 3.9 6.4 18 18 0 0 0 9 5.2l-.8 6.4H19a6 6 0 0 0-6 6 1 1 0 0 0 1 1h22.2a1 1 0 0 0 1-1 6 6 0 0 0-6-6h-1.5l-.8-6.5a18.7 18.7 0 0 0 13-11.5c4.8-.4 8.2-4.7 8.2-10v-9a1 1 0 0 0-1-1zM2 20v-8h5v11a20.5 20.5 0 0 0 .6 4.8C4.3 27.1 2 23.8 2 20zm33 33H15a4 4 0 0 1 4-3h12a4 4 0 0 1 4 3zm-8.1-11l.7 6h-5.2l.7-6H27zm-2-2a15.5 15.5 0 0 1-11.3-5 17.2 17.2 0 0 1-3.5-6 1 1 0 0 0-.2-.6A18.4 18.4 0 0 1 9 23V6h1.6a1 1 0 1 0 0-2H7.2a1.8 1.8 0 0 1-1.8-2h38.4A1.8 1.8 0 0 1 42 4H31a1 1 0 0 0 0 2h10v17c0 9.3-7.4 17-16 17zM48 20c0 4-2.2 7.2-5.6 7.9a20.3 20.3 0 0 0 .6-5V12h5v8zm-26.4 8h-3.1a.3.3 0 0 0-.4.4v1.3a3.5 3.5 0 0 1-.2 1.7 1.1 1.1 0 0 1-.5.5.3.3 0 0 0-.2.4l.4.7a.3.3 0 0 0 .4.2 2 2 0 0 0 .8-.6 4 4 0 0 0 .7-2.7v-.5h1v3.3a.3.3 0 0 0 .4.4h.7a.3.3 0 0 0 .4-.4v-4.3a.3.3 0 0 0-.4-.4zm3.7-.1a2 2 0 0 0-2.4 2.1v1a2 2 0 0 0 2.3 2.2 2.3 2.3 0 0 0 2.2-.9.4.4 0 0 0-.2-.6l-.5-.2a.4.4 0 0 0-.5.1 1 1 0 0 1-1 .4.7.7 0 0 1-.8-.7V31h2.7a.4.4 0 0 0 .5-.5V30a2 2 0 0 0-2.3-2zm.8 2h-1.7v-.1a.9.9 0 0 1 1.7 0v.2zm6.2-1.8h-3.7a.3.3 0 0 0-.3.3v.6a.3.3 0 0 0 .3.4h1.2v3.3a.3.3 0 0 0 .3.4h.8a.3.3 0 0 0 .3-.4v-3.3h1.1a.3.3 0 0 0 .4-.4v-.6a.3.3 0 0 0-.4-.3z" data-name="Shape 4 copy"/></svg>