<svg xmlns="http://www.w3.org/2000/svg" width="50" height="62"><path fill="#376ef3" fill-rule="evenodd" d="M11.9 23.8l1.6-3.7h.8v3.7h1v-9.5h-1.5a2.7 2.7 0 0 0-2.7 3 2.6 2.6 0 0 0 1.4 2.6l-1.8 3.9h1.2zm.3-6.5c0-1.6.8-2.2 1.6-2.2h.5v4.2h-.5c-1 0-1.6-.5-1.6-2zm25.4 6.6a2 2 0 0 0 1.4-.5l-.3-.8a1.7 1.7 0 0 1-1.1.4c-.8 0-1.2-1-1.2-2.6s.5-2.6 1.2-2.6a1.8 1.8 0 0 1 1.1.5l.2-1a2 2 0 0 0-1.3-.3c-1.5 0-2.3 1.3-2.3 3.4 0 2.3.8 3.5 2.3 3.5zm-15.8-.1h2.9V25h1v-2.2H25v-5.8H22v.5a14.6 14.6 0 0 1-.7 5.3h-.4v2.2h1v-1.3zM23 18h1.2v5h-1.8a14.8 14.8 0 0 0 .6-5zm5.6 5.9a2.7 2.7 0 0 0 1.6-.6l-.2-.8a2.3 2.3 0 0 1-1.3.5c-.8 0-1.3-.8-1.3-2.3h2.8V20c0-2.3-.7-3.1-1.8-3.1-1.5 0-2 1.5-2 3.7 0 2 .8 3.2 2.2 3.2zm-.2-6c.6 0 .8.8.8 2h-1.8c.1-1.3.3-2 1-2zm4 2.5l1.7 3.4H35l-1.9-3.6 1.7-3.1h-1l-1.7 3v-3h-1v6.7h1v-3.4zm-14.6.4h1.6v3h1V17h-1v2.8h-1.6v-2.8h-1v6.7h1v-3zm-5 9.5v1h2.6a2.3 2.3 0 0 1-.6 1.4 2.7 2.7 0 0 1-2 .8 2.9 2.9 0 0 1 0-5.8 2.8 2.8 0 0 1 2 .8l.7-.8a3.8 3.8 0 0 0-2.7-1 4 4 0 1 0 0 8 3.6 3.6 0 0 0 2.8-1.2 3.6 3.6 0 0 0 .9-2.6 3.5 3.5 0 0 0 0-.6h-3.7zm7-1a2.6 2.6 0 1 0 2.5 2.6 2.5 2.5 0 0 0-2.5-2.5zm0 4.2A1.6 1.6 0 1 1 21 32a1.5 1.5 0 0 1-1.4 1.6zm8.8-1.6a2.5 2.5 0 0 0 2.4 2.6 1.8 1.8 0 0 0 1.4-.6v.4a1.3 1.3 0 0 1-1.4 1.5 1.4 1.4 0 0 1-1.3-1l-1 .5a2.5 2.5 0 0 0 2.3 1.5 2.4 2.4 0 0 0 2.5-2.7v-4.6h-1.1v.5a1.8 1.8 0 0 0-1.4-.6 2.5 2.5 0 0 0-2.4 2.6zm2.5-1.5a1.6 1.6 0 1 1-1.4 1.5 1.4 1.4 0 0 1 1.4-1.5zm-3 1.5a2.6 2.6 0 1 0-2.6 2.6A2.5 2.5 0 0 0 28 32zm-4 0a1.5 1.5 0 1 1 1.4 1.6A1.5 1.5 0 0 1 24 32zm10.3 2.6h1v-7.8h-1v7.8zm6.6-3.5a2.4 2.4 0 0 0-2.2-1.6 2.4 2.4 0 0 0-2.5 2.5 2.5 2.5 0 0 0 2.6 2.6 2.6 2.6 0 0 0 2.1-1.1l-.8-.6a1.5 1.5 0 0 1-1.3.7 1.3 1.3 0 0 1-1.3-.8l3.5-1.4zm-3.5.9a1.4 1.4 0 0 1 1.3-1.6 1 1 0 0 1 1 .6zM14 9.3a1 1 0 0 0 .6-.2 19.2 19.2 0 0 1 3.3-1.8 1 1 0 1 0-.8-1.8 21.3 21.3 0 0 0-3.7 2 1 1 0 0 0 .6 1.8zm25 28.5a19 19 0 0 1-14 6.1 1 1 0 0 0-1 1 1 1 0 0 0 1 1 21 21 0 0 0 15.5-6.8 1 1 0 0 0-1.5-1.3zm10.8 14.7l-7.2-9.6a1.1 1.1 0 0 0-.1-.1 25 25 0 1 0-35 0h-.1L.2 52.5A1 1 0 0 0 1 54h9.3l4.4 7.5a1 1 0 0 0 .8.5 1 1 0 0 0 .9-.5l7.2-11.3a1 1 0 0 0 .1-.3 27.8 27.8 0 0 0 3 0l7 11.6a1 1 0 0 0 .8.5 1 1 0 0 0 .8-.5l4.5-7.6 9.2.2a1 1 0 0 0 .9-.6 1 1 0 0 0-.1-1zM15.6 59l-3.9-6.7a1 1 0 0 0-.9-.5L3 52l6-7.9a24.8 24.8 0 0 0 12.6 5.6zM2 25a23 23 0 1 1 23 23A23 23 0 0 1 2 25zm37 27a1 1 0 0 0-.8.4L34.5 59l-5.6-9.4A25 25 0 0 0 41 44.1l6 8z" data-name="Shape 5 copy"/></svg>