<svg xmlns="http://www.w3.org/2000/svg" width="54" height="54"><path fill="#1f6fec" fill-rule="evenodd" d="M37.2 43.2a1 1 0 0 1-.5-.1L27 38 17.3 43a1 1 0 0 1-1 0 1 1 0 0 1-.5-1l1.9-10.9-7.9-7.6a1 1 0 0 1 .6-1.7l10.8-1.6 4.9-9.9a1 1 0 0 1 1.8 0l4.9 9.9 10.8 1.6a1 1 0 0 1 .6 1.7l-7.9 7.6L38.2 42a1 1 0 0 1-.4 1 1 1 0 0 1-.6.2zM27 36a1 1 0 0 1 .5 0l8.3 4.5-1.6-9.4a1 1 0 0 1 .3-.8l6.8-6.7-9.4-1.3a1 1 0 0 1-.7-.6L27 13.1l-4.2 8.5a1 1 0 0 1-.7.6l-9.4 1.3 6.8 6.7a1 1 0 0 1 .3.8l-1.6 9.4 8.3-4.4a1 1 0 0 1 .5-.1zM27 54a27 27 0 1 1 27-27 27 27 0 0 1-27 27zm0-52a25 25 0 1 0 25 25A25 25 0 0 0 27 2zm18 13.9a1 1 0 0 1-.9-.5 20.7 20.7 0 0 0-17.1-9 1 1 0 0 1 0-2 22.7 22.7 0 0 1 18.8 10 1 1 0 0 1-.3 1.3 1 1 0 0 1-.5.2zM10 41.4a1 1 0 0 1-.8-.4 22.4 22.4 0 0 1-4.9-14 1 1 0 0 1 2 0 20.4 20.4 0 0 0 4.5 12.8 1 1 0 0 1-.2 1.4 1 1 0 0 1-.6.2z" data-name="Shape 10 copy"/></svg>