<svg xmlns="http://www.w3.org/2000/svg" width="51" height="44.2"><path fill="#1f6fec" fill-rule="evenodd" d="M39.8 14H15.5a1 1 0 0 0 0 2h24.3a1 1 0 0 0 0-2zM15.5 24H36a1 1 0 0 0 0-2H15.5a1 1 0 0 0 0 2zm24.3 6H15.5a1 1 0 0 0 0 2h24.3a1 1 0 1 0 0-2zm7.4-30H3.8A3.8 3.8 0 0 0 0 3.8v4.6A3.8 3.8 0 0 0 3.8 12H9v31a1 1 0 0 0 .5 1 1 1 0 0 0 .5 0 1 1 0 0 0 .6-.2l5-4.6L21 44a1 1 0 0 0 1.3 0l5.3-4.6L33 44a1 1 0 0 0 1.3 0l5.3-4.6 4.7 4.6a1 1 0 0 0 1.7-.7v-31h1.2A3.8 3.8 0 0 0 51 8.3V3.8A3.8 3.8 0 0 0 47.3 0zM44 41l-3.7-3.7a1 1 0 0 0-1.3 0l-5.4 4.5-5.3-4.5a1 1 0 0 0-1.3 0l-5.4 4.5-5.3-4.5a1 1 0 0 0-1.3 0L11 41V11a1 1 0 0 0 0-.3L9 7h33.1l1.9 4.3V41zm5-32.6a1.8 1.8 0 0 1-1.8 1.7h-1.5L44.2 7h2.1a1 1 0 0 0 0-2H5.1a1 1 0 0 0 0 2h1.8L8.5 10H3.8A1.8 1.8 0 0 1 2 8.4V3.8A1.7 1.7 0 0 1 3.8 2h43.4A1.8 1.8 0 0 1 49 3.8v4.6z" data-name="Shape 12 copy"/></svg>