<svg xmlns="http://www.w3.org/2000/svg" width="52.2" height="34.9"><path fill="#fff" fill-rule="evenodd" d="M0 35v-6.7h1.3l3 4 3.2-4h1.2v6.6H7.3v-4.1a2.8 2.8 0 0 1 0-.3v-.4a4.5 4.5 0 0 0-.2.4 3.1 3.1 0 0 1-.2.3L4.4 34h-.3l-2.5-3.3a2.4 2.4 0 0 1-.2-.4 1.3 1.3 0 0 1-.2-.3V34.9H0zm13-2.7h2.9l-1.5-2.7-1.4 2.7zm-3 2.6l3.7-6.6h1.5l3.9 6.6h-1.8l-.8-1.4h-4.2l-.8 1.4H10zm16-5.5h-4.2v4.3H26v-1.5l1.5.4v.7a1.8 1.8 0 0 1-.3 1.3 2 2 0 0 1-1.3.3h-4a2 2 0 0 1-1.3-.3 1.8 1.8 0 0 1-.4-1.2v-3.6a1.8 1.8 0 0 1 .4-1.2 2 2 0 0 1 1.3-.3h4a2 2 0 0 1 1.3.3 1.8 1.8 0 0 1 .3 1.2v.7l-1.5.2v-1.3zm7 0V35h-1.6v-5.5h-3v-1.1H36v1.1H33zm3.8 5.5v-6.6h6.9v1h-5.3V31h3V32h-3v1.7h5.3v1.2h-6.9zM50 29.4h-3.5v1.8H50a1 1 0 0 0 .6-.1.5.5 0 0 0 .1-.5V30a.5.5 0 0 0-.1-.4 1 1 0 0 0-.6-.1zm-5 5.5v-6.6h5.7a1.9 1.9 0 0 1 1.2.3 1.3 1.3 0 0 1 .3 1V31a1.2 1.2 0 0 1-.4 1 1.8 1.8 0 0 1-1.1.3h-4.2V35H45zM29.8 3a1.2 1.2 0 0 1 1 .4 5.3 5.3 0 0 1 .7 1.5L35.8 15a.3.3 0 0 1 0 .2c-.5 1.1-1.9 4.3-2.2 4.7a1.4 1.4 0 0 1-.7.4.6.6 0 0 1-.4-.1 1.8 1.8 0 0 1-.8-.9L27 8.2a.2.2 0 0 1 0-.2L29 3.7a2.6 2.6 0 0 1 .6-.7 1 1 0 0 1 .3-.1zM29.2 0h11.4a2.3 2.3 0 0 1 1 .3A3 3 0 0 1 43 1.6l9.3 21.6H40.6a.2.2 0 0 1-.3-.2L32 3.6l-.8-1.8A3.3 3.3 0 0 0 29.7.2l-.5-.2zm4 23.2H21.6a.4.4 0 0 0-.1 0 2.4 2.4 0 0 1-1.2-.6 4.3 4.3 0 0 1-1.1-1.6L11.3 2.6a9.2 9.2 0 0 0-.8-1.6A2.8 2.8 0 0 0 9 0h11.4a2.4 2.4 0 0 1 1.4.6A4.5 4.5 0 0 1 23 2.4l7.2 17 1.1 2.2a3 3 0 0 0 1.4 1.4l.5.2zm-33 0l.6-1.6 2.8-6.4 2.8-6.8q1-2 1.8-4.2A2.6 2.6 0 0 1 9.1 3a.7.7 0 0 1 .9 0 2.9 2.9 0 0 1 .7.8l.9 2.2 3 7.2.7 1.7a.5.5 0 0 1 0 .4l-2.2 5.1-1 2.6a.3.3 0 0 1-.3.2H.2z" data-name="Shape 13 copy"/></svg>