<svg xmlns="http://www.w3.org/2000/svg" width="52.72" height="40.43"><path d="M39.32.38L13.01 15.57a2.81 2.81 0 0 0-1.02 3.84l9.18 15.92a2.82 2.82 0 0 0 3.84 1.03l26.31-15.19a2.82 2.82 0 0 0 1.03-3.84L43.16 1.41A2.82 2.82 0 0 0 39.32.38zm2.11 2.03l9.19 15.92a.38.38 0 0 1 .03.1l-12.7-3.4 3.4-12.7a.6.6 0 0 1 .08.08zm-6.47 16.04a4.08 4.08 0 0 1-4.99 2.88l-15.66-4.2L39.16 2.78zm-9.44 3.76l-3.05 11.37-8.32-14.42zm1.93.52l2 .53a6.07 6.07 0 0 0 7.45-4.3l.53-2 11.73 3.14-24.85 14.35zM2.32 28.67l4.33-2.5a1 1 0 1 0-1-1.73l-4.33 2.5a1 1 0 1 0 1 1.73zm13.79 5.9l-6.92 4a.99.99 0 0 0-.37 1.36 1.01 1.01 0 0 0 1.37.37l6.92-4a1 1 0 1 0-1-1.73zM3.95 33.5l-3.46 2a1.01 1.01 0 0 0-.37 1.37 1 1 0 0 0 1.37.36l3.46-1.99a1 1 0 0 0-1-1.74z" fill="#376ef3" fill-rule="evenodd"/></svg>