<?xml version="1.0" encoding="utf-8"?>
<!-- Generator: Adobe Illustrator 19.2.1, SVG Export Plug-In . SVG Version: 6.00 Build 0)  -->
<svg version="1.1" id="Layer_1" xmlns="http://www.w3.org/2000/svg" xmlns:xlink="http://www.w3.org/1999/xlink" x="0px" y="0px"
	 viewBox="0 0 426.8 353.9" style="enable-background:new 0 0 426.8 353.9;" xml:space="preserve">
<style type="text/css">
	.st0{fill:#EB8830;}
	.st1{fill:#F29344;}
	.st2{fill:#E5802E;}
	.st3{fill:#D87227;}
	.st4{fill:#EFD99E;}
	.st5{fill:#E2C78D;}
	.st6{fill:#FCE7B5;}
	.st7{fill:#E2C791;}
	.st8{fill:#DAE8C9;}
	.st9{fill:#D1DDBF;}
	.st10{opacity:0.5;}
	.st11{fill:#ECF2E4;}
	.st12{fill:#DD7826;}
	.st13{fill:#F2EADA;}
	.st14{fill:#E0D5C1;}
	.st15{fill:#91B0A9;}
	.st16{fill:#769990;}
	.st17{fill:#4C7E80;}
	.st18{fill:#EAE2D3;}
	.st19{fill:#3C6D6D;}
	.st20{fill:#E5DDCF;}
	.st21{fill:#C8C9AE;}
	.st22{fill:#B5B595;}
	.st23{fill:#7DA097;}
	.st24{fill:#8AA8A0;}
	.st25{fill:#A2BCB5;}
	.st26{fill:#84A59D;}
	.st27{fill:#EFEAE6;}
	.st28{fill:#DDD4CE;}
	.st29{fill:#F7F4F0;}
	.st30{fill:#C7E5D8;}
	.st31{fill:#BCDDCE;}
	.st32{fill:#CCBCA3;}
	.st33{fill:#C1AD91;}
	.st34{fill:#7C9B93;}
	.st35{fill:#DDD1BC;}
</style>
<g id="Attic_x5F_Home_x5F_addition">
	<g>
		<g>
			<polygon class="st0" points="162.7,51.8 390.4,96.2 390.4,158.4 162.7,158.4 			"/>
		</g>
		<g>
			<rect x="237.8" y="90.6" class="st1" width="122.4" height="8.6"/>
		</g>
		<g>
			<rect x="178.3" y="148.4" class="st1" width="126.9" height="8.6"/>
		</g>
		<g>
			<rect x="165.2" y="71" class="st1" width="93.7" height="8.6"/>
		</g>
		<g>
			<rect x="169.1" y="108.6" class="st1" width="107.5" height="8.6"/>
		</g>
		<g>
			<rect x="236.8" y="134.5" class="st1" width="145.7" height="8.6"/>
		</g>
		<g>
			<rect x="276.6" y="119.1" class="st2" width="107.5" height="6.5"/>
		</g>
		<g>
			<rect x="202.7" y="100.6" class="st2" width="107.5" height="6.5"/>
		</g>
		<g>
			<rect x="281.1" y="107" class="st3" width="107.5" height="6.5"/>
		</g>
		<g>
			<rect x="307.2" y="144.8" class="st2" width="83.7" height="6.5"/>
		</g>
		<g>
			<rect x="168" y="88.5" class="st2" width="68.9" height="6.5"/>
		</g>
		<g>
			<rect x="162.7" y="100.6" class="st3" width="38.6" height="6.5"/>
		</g>
		<g>
			<rect x="229.6" y="80.8" class="st3" width="72.8" height="6.5"/>
		</g>
		<g>
			<rect x="318.1" y="127.2" class="st3" width="72.8" height="6.5"/>
		</g>
		<g>
			<rect x="163.9" y="123.9" class="st3" width="97.8" height="6.5"/>
		</g>
	</g>
	<g>
		<path class="st4" d="M426.8,71.1L106.6,11.9V2c0-1.2,1.1-2.1,2.3-1.9l316.3,58.4c0.9,0.2,1.6,1,1.6,1.9V71.1z"/>
	</g>
	<g>
		<polygon class="st5" points="426.8,71.1 390.4,105.1 390.4,96.2 162.7,51.8 162.7,96.9 130.1,96.9 106.6,11.9 		"/>
	</g>
	<g>
		<g>
			<path class="st6" d="M220.7,96.9h-52.4c-0.2,0-0.3-0.2-0.3-0.3V67.4c0-0.2,0.2-0.3,0.3-0.3h52.4c0.2,0,0.3,0.2,0.3,0.3v29.2
				C221.1,96.8,220.9,96.9,220.7,96.9z"/>
		</g>
		<g>
			<path class="st7" d="M220.8,97.1h-52.5c-0.3,0-0.5-0.2-0.5-0.5V67.3c0-0.3,0.2-0.5,0.5-0.5h52.5c0.3,0,0.5,0.2,0.5,0.5v29.4
				C221.3,96.9,221.1,97.1,220.8,97.1z M168.3,67.2C168.2,67.2,168.2,67.3,168.3,67.2l-0.1,29.4c0,0,0,0.1,0.1,0.1h52.5
				c0,0,0.1,0,0.1-0.1V67.3c0,0,0-0.1-0.1-0.1H168.3z"/>
		</g>
		<g>
			
				<rect x="193.8" y="73.7" transform="matrix(-1.836970e-016 1 -1 -1.836970e-016 290.712 -122.743)" class="st8" width="25.9" height="20.7"/>
		</g>
		<g>
			
				<rect x="169.4" y="73.7" transform="matrix(-1.836970e-016 1 -1 -1.836970e-016 266.3096 -98.3405)" class="st8" width="25.9" height="20.7"/>
		</g>
		<g>
			<polygon class="st9" points="198.4,75.5 217.1,75.5 217.1,71 196.4,71 196.4,96.9 198.4,96.9 			"/>
		</g>
		<g>
			<polygon class="st9" points="174,75.5 192.7,75.5 192.7,71 172,71 172,96.9 174,96.9 			"/>
		</g>
		<g>
			<g class="st10">
				<path class="st11" d="M201.6,71c-1.7,1-3.5,2-5.2,3.1v4.4c4.1-2.5,8.2-5,12.2-7.5H201.6z"/>
			</g>
			<g class="st10">
				<path class="st11" d="M217.1,72.3c-6.9,4.1-13.8,8.2-20.7,12.1v8.5c6.9-3.4,13.8-6.8,20.7-10.3V72.3z"/>
			</g>
			<g class="st10">
				<path class="st11" d="M192.7,86.6c-6.3,3.6-12.7,7.1-19.2,10.4h14.8c1.5-0.7,3-1.4,4.4-2.2V86.6z"/>
			</g>
			<g class="st10">
				<path class="st11" d="M192.7,76.4c-6.8,4.1-13.6,8.3-20.7,12.1v5.2c6.9-4.3,13.8-8.6,20.7-12.9V76.4z"/>
			</g>
		</g>
	</g>
	<g>
		<polygon class="st12" points="163.1,99.2 162.3,99.2 162.3,51.3 162.8,51.4 390.5,95.8 390.3,96.6 163.1,52.3 		"/>
	</g>
	<g>
		<g>
			<g>
				<rect x="333.2" y="102.2" class="st6" width="36.3" height="53.4"/>
			</g>
			<g>
				<path class="st7" d="M369.8,155.8H333V102h36.7V155.8z M333.4,155.4h35.9v-53h-35.9V155.4z"/>
			</g>
			<g>
				
					<rect x="344.4" y="130.4" transform="matrix(-1.836970e-016 1 -1 -1.836970e-016 498.3439 -204.4743)" class="st8" width="14.1" height="33.1"/>
			</g>
			<g>
				
					<rect x="334.5" y="104.2" transform="matrix(-1.836970e-016 1 -1 -1.836970e-016 472.1624 -230.6557)" class="st8" width="33.9" height="33.1"/>
			</g>
			<g>
				<polygon class="st9" points="336.5,142.9 368,142.9 368,139.9 334.8,139.9 334.8,154 336.5,154 				"/>
			</g>
			<g>
				<polygon class="st9" points="336.5,106.8 368,106.8 368,103.8 334.8,103.8 334.8,137.7 336.5,137.7 				"/>
			</g>
		</g>
		<g>
			<g>
				<rect x="294" y="102.2" class="st6" width="36.3" height="53.4"/>
			</g>
			<g>
				<path class="st7" d="M330.6,155.8h-36.7V102h36.7V155.8z M294.2,155.4h35.9v-53h-35.9V155.4z"/>
			</g>
			<g>
				
					<rect x="305.2" y="130.4" transform="matrix(-1.836970e-016 1 -1 -1.836970e-016 459.1353 -165.2656)" class="st8" width="14.1" height="33.1"/>
			</g>
			<g>
				
					<rect x="295.2" y="104.2" transform="matrix(-1.836970e-016 1 -1 -1.836970e-016 432.9538 -191.4471)" class="st8" width="33.9" height="33.1"/>
			</g>
			<g>
				<polygon class="st9" points="297.2,142.9 328.8,142.9 328.8,139.9 295.6,139.9 295.6,154 297.2,154 				"/>
			</g>
			<g>
				<polygon class="st9" points="297.2,106.8 328.8,106.8 328.8,103.8 295.6,103.8 295.6,137.7 297.2,137.7 				"/>
			</g>
		</g>
		<g>
			<g>
				<rect x="254.8" y="102.2" class="st6" width="36.3" height="53.4"/>
			</g>
			<g>
				<path class="st7" d="M291.4,155.8h-36.7V102h36.7V155.8z M255,155.4H291v-53H255V155.4z"/>
			</g>
			<g>
				
					<rect x="266" y="130.4" transform="matrix(-1.836970e-016 1 -1 -1.836970e-016 419.9267 -126.057)" class="st8" width="14.1" height="33.1"/>
			</g>
			<g>
				
					<rect x="256" y="104.2" transform="matrix(-1.836970e-016 1 -1 -1.836970e-016 393.7452 -152.2386)" class="st8" width="33.9" height="33.1"/>
			</g>
			<g>
				<polygon class="st9" points="258,142.9 289.6,142.9 289.6,139.9 256.4,139.9 256.4,154 258,154 				"/>
			</g>
			<g>
				<polygon class="st9" points="258,106.8 289.6,106.8 289.6,103.8 256.4,103.8 256.4,137.7 258,137.7 				"/>
			</g>
		</g>
		<g>
			<g class="st10">
				<path class="st11" d="M334.8,139.9v3.4c2-1.1,4-2.3,6-3.4H334.8z"/>
			</g>
			<g class="st10">
				<path class="st11" d="M345.1,103.8c-3.4,2.2-6.8,4.4-10.3,6.7v5.6c6-4.1,12-8.2,18.1-12.3H345.1z"/>
			</g>
			<g class="st10">
				<path class="st11" d="M368,113.8c-11,6.9-22.1,13.8-33.1,20.7v3.2h9.9c7.7-4.3,15.5-8.6,23.2-13V113.8z"/>
			</g>
			<g class="st10">
				<path class="st11" d="M295.6,139.9v4.2c1.9-1.4,3.8-2.8,5.7-4.2H295.6z"/>
			</g>
			<g class="st10">
				<path class="st11" d="M328.8,139.9h-2.7c-7.7,4.7-15.4,9.5-23.2,14.1h13.6c4.1-2.5,8.2-4.9,12.3-7.2V139.9z"/>
			</g>
			<g>
				<path class="st8" d="M295.6,103.8v3.7c1.6-1.2,3.3-2.5,4.9-3.7H295.6z"/>
			</g>
			<g class="st10">
				<path class="st11" d="M328.8,120.3v-5.8c-11.1,7.4-22.1,14.8-33.1,22.3v0.9h8.7C312.4,131.8,320.6,126,328.8,120.3z"/>
			</g>
			<g class="st10">
				<path class="st11" d="M300.5,103.8c-1.6,1.2-3.3,2.5-4.9,3.7v18.7c10.7-7.5,21.3-15,32-22.4H300.5z"/>
			</g>
			<g class="st10">
				<path class="st11" d="M256.4,139.9v13.5c6.6-4.4,13.2-8.9,19.7-13.5H256.4z"/>
			</g>
			<g class="st10">
				<path class="st11" d="M289.6,141c-6.3,4.3-12.6,8.6-18.8,13h11.6c2.4-1.8,4.8-3.6,7.2-5.4V141z"/>
			</g>
			<g class="st10">
				<path class="st11" d="M289.6,112.1c-11,8.4-21.8,17-32.7,25.6h22.4c3.4-2.4,6.9-4.8,10.3-7.2V112.1z"/>
			</g>
		</g>
	</g>
</g>
<g id="Multi_x5F_story_x5F_home_x5F_additions">
	<g>
		<rect x="252.4" y="158.4" class="st13" width="138" height="195.2"/>
	</g>
	<g>
		<line class="st13" x1="390.4" y1="225.5" x2="252.4" y2="225.5"/>
		<rect x="252.4" y="225.3" class="st14" width="138" height="0.4"/>
	</g>
	<g>
		<line class="st13" x1="375.5" y1="158.4" x2="375.5" y2="353.7"/>
		<rect x="375.3" y="158.4" class="st14" width="0.4" height="195.2"/>
	</g>
	<g>
		<line class="st13" x1="270.7" y1="158.4" x2="270.7" y2="353.7"/>
		<rect x="270.5" y="158.4" class="st14" width="0.4" height="195.2"/>
	</g>
	<g>
		<rect x="280.3" y="280.5" class="st15" width="84.6" height="73.2"/>
	</g>
	<g>
		<path class="st16" d="M365.1,353.7l-85,0v-73.4h85V353.7z M280.5,353.5h84.2v-72.8h-84.2V353.5z"/>
	</g>
	<g>
		
			<rect x="286.8" y="277.2" transform="matrix(-1.836970e-016 1 -1 -1.836970e-016 640.5085 -4.7446)" class="st17" width="71.6" height="81.4"/>
	</g>
	<g>
		<rect x="296.8" y="210.4" class="st18" width="71.2" height="2.5"/>
	</g>
	<g>
		<g>
			<g>
				<rect x="296.8" y="179.2" class="st15" width="71.1" height="31.2"/>
			</g>
			<g>
				<path class="st16" d="M368.1,210.6h-71.5V179h71.5V210.6z M297,210.2h70.7v-30.8H297V210.2z"/>
			</g>
			<g>
				
					<rect x="338.7" y="181.3" transform="matrix(-1.836970e-016 1 -1 -1.836970e-016 547.5499 -157.8871)" class="st8" width="28" height="27.2"/>
			</g>
			<g>
				
					<rect x="298" y="181.3" transform="matrix(-1.836970e-016 1 -1 -1.836970e-016 506.816 -117.1532)" class="st8" width="28" height="27.2"/>
			</g>
			<g>
				<polygon class="st9" points="341.6,185.3 366.3,185.3 366.3,180.8 339.1,180.8 339.1,208.8 341.6,208.8 				"/>
			</g>
			<g>
				<polygon class="st9" points="300.9,185.3 325.6,185.3 325.6,180.8 298.4,180.8 298.4,208.8 300.9,208.8 				"/>
			</g>
			<g class="st10">
				<path class="st11" d="M339.1,180.8v8.7c5.7-2.9,11.4-5.8,17.1-8.7H339.1z"/>
			</g>
			<g class="st10">
				<path class="st11" d="M366.3,183.1c-9,4.9-18.1,9.6-27.2,14.5v6.3c9-5.5,18-10.8,27.2-15.9V183.1z"/>
			</g>
			<g class="st10">
				<path class="st11" d="M325.6,180.8h-5c-7.5,4.4-14.8,9.1-22.1,14v13.9h0.4c9.1-3.9,18-8.1,26.8-12.4V180.8z"/>
			</g>
			<g class="st10">
				<path class="st11" d="M325.6,205.2c-2,1.2-4.1,2.4-6.1,3.6h6.1V205.2z"/>
			</g>
		</g>
		<g>
			<rect x="332.2" y="179.2" class="st16" width="0.4" height="31.2"/>
		</g>
	</g>
	<g>
		<line class="st17" x1="282" y1="288.6" x2="363.3" y2="288.6"/>
		<rect x="282" y="288.4" class="st19" width="81.4" height="0.4"/>
	</g>
	<g>
		<line class="st17" x1="282" y1="282.1" x2="363.3" y2="282.1"/>
		<rect x="282" y="281.9" class="st19" width="81.4" height="0.4"/>
	</g>
	<g>
		<line class="st17" x1="282" y1="301.6" x2="363.3" y2="301.6"/>
		<rect x="282" y="301.4" class="st19" width="81.4" height="0.4"/>
	</g>
	<g>
		<line class="st17" x1="282" y1="295.1" x2="363.3" y2="295.1"/>
		<rect x="282" y="294.9" class="st19" width="81.4" height="0.4"/>
	</g>
	<g>
		<line class="st17" x1="282" y1="314.6" x2="363.3" y2="314.6"/>
		<rect x="282" y="314.4" class="st19" width="81.4" height="0.4"/>
	</g>
	<g>
		<line class="st17" x1="282" y1="308.1" x2="363.3" y2="308.1"/>
		<rect x="282" y="307.9" class="st19" width="81.4" height="0.4"/>
	</g>
	<g>
		<line class="st17" x1="282" y1="327.6" x2="363.3" y2="327.6"/>
		<rect x="282" y="327.4" class="st19" width="81.4" height="0.4"/>
	</g>
	<g>
		<line class="st17" x1="282" y1="321.1" x2="363.3" y2="321.1"/>
		<rect x="282" y="320.9" class="st19" width="81.4" height="0.4"/>
	</g>
	<g>
		<line class="st17" x1="282" y1="340.7" x2="363.3" y2="340.7"/>
		<rect x="282" y="340.5" class="st19" width="81.4" height="0.4"/>
	</g>
	<g>
		<line class="st17" x1="282" y1="334.2" x2="363.3" y2="334.2"/>
		<rect x="282" y="334" class="st19" width="81.4" height="0.4"/>
	</g>
	<g>
		<line class="st17" x1="282" y1="347.2" x2="363.3" y2="347.2"/>
		<rect x="282" y="347" class="st19" width="81.4" height="0.4"/>
	</g>
	<g>
		<path class="st20" d="M333.4,276.8h-20.8v-2c0-0.7,0.6-1.2,1.2-1.2l17.5-1c0.7,0,2.1,1.5,2.1,2.2V276.8z"/>
	</g>
	<g>
		<path class="st15" d="M333,275.7h-20.8v-0.2c0-1.7,1.4-3.1,3.1-3.1h14.5c1.7,0,3.1,1.4,3.1,3.1V275.7z"/>
	</g>
</g>
<g id="Secon_x5F_story_x5F_additions">
	<polygon class="st21" points="258.5,83.6 174.9,83.6 172.5,83.6 93.8,83.6 91.4,83.6 7.8,83.6 5.4,83.6 5.4,86.1 5.4,96.9 
		7.8,96.9 7.8,86.1 91.4,86.1 91.4,96.9 93.8,96.9 93.8,86.1 172.5,86.1 172.5,96.9 174.9,96.9 174.9,86.1 258.5,86.1 258.5,96.9 
		260.9,96.9 260.9,86.1 260.9,83.6 	"/>
	<path class="st22" d="M261.1,97.1h-2.8V86.3h-83.2v10.8h-2.8V86.3H94v10.8h-2.8V86.3H8v10.8H5.2V83.4h255.9V97.1z M258.7,96.7h2
		v-13H5.6v13h2V85.9h84v10.8h2V85.9h79v10.8h2V85.9h84V96.7z"/>
	<rect x="0.3" y="96.9" class="st15" width="263.1" height="10.5"/>
	<g>
		<path class="st23" d="M236.5,193.9h-77.6v-73.8h77.6V193.9z M159.5,193.3h76.4v-72.6h-76.4V193.3z"/>
	</g>
	<g>
		<rect x="163.2" y="124.4" class="st6" width="69" height="65.2"/>
	</g>
	<polygon class="st15" points="260.9,96.9 5.4,96.9 5.4,202.1 5.4,219.7 5.4,248.9 158.4,248.9 158.4,220.5 260.9,220.5 	"/>
	<path class="st23" d="M263.7,107.8H0V96.6h263.7V107.8z M0.6,107.2h262.5v-9.9H0.6V107.2z"/>
	<rect x="5.4" y="107.5" class="st24" width="255.5" height="7.5"/>
	<rect x="25.3" y="120.6" class="st24" width="120.9" height="113.7"/>
	<g>
		<path class="st23" d="M146.3,234.9h-121V120.1h121V234.9z M25.9,234.3h119.8V120.7H25.9V234.3z"/>
	</g>
	<g>
		<rect x="29.6" y="124.4" class="st6" width="112.4" height="106.2"/>
	</g>
	<g>
		<path class="st7" d="M142.1,230.8H29.4V124.2h112.8V230.8z M29.8,230.4h112V124.6h-112V230.4z"/>
	</g>
	<g>
		<g>
			<rect x="33.6" y="128.4" class="st8" width="50.3" height="35.1"/>
		</g>
		<g>
			<rect x="87.7" y="128.4" class="st8" width="50.3" height="35.1"/>
		</g>
		<g>
			<rect x="33.6" y="168" class="st8" width="50.3" height="58.5"/>
		</g>
		<g>
			<rect x="87.7" y="168" class="st8" width="50.3" height="58.5"/>
		</g>
		<g>
			<polygon class="st9" points="37.6,135.4 83.8,135.4 83.8,128.4 33.6,128.4 33.6,163.5 37.6,163.5 			"/>
		</g>
		<g>
			<polygon class="st9" points="91.7,135.4 137.9,135.4 137.9,128.4 87.7,128.4 87.7,163.5 91.7,163.5 			"/>
		</g>
		<g>
			<polygon class="st9" points="37.6,175 83.8,175 83.8,168 33.6,168 33.6,226.5 37.6,226.5 			"/>
		</g>
		<g>
			<polygon class="st9" points="91.7,175 137.9,175 137.9,168 87.7,168 87.7,226.5 91.7,226.5 			"/>
		</g>
		<g>
			<g class="st10">
				<path class="st11" d="M83.8,162.4v-30.4c-12.3,10.2-24.4,20.7-36.3,31.4h35.2C83.1,163.1,83.5,162.8,83.8,162.4z"/>
			</g>
			<g>
				<path class="st8" d="M83.8,162.4c-0.4,0.3-0.8,0.7-1.1,1h1.1V162.4z"/>
			</g>
			<g>
				<path class="st8" d="M87.7,128.4v0.5c0.2-0.2,0.4-0.3,0.6-0.5H87.7z"/>
			</g>
			<g class="st10">
				<path class="st11" d="M88.3,128.4c-0.2,0.2-0.4,0.3-0.6,0.5V159c11.2-10.2,22.4-20.5,33.7-30.6H88.3z"/>
			</g>
			<g class="st10">
				<path class="st11" d="M137.9,148.1v-12c-11.4,9-22.6,18.1-33.8,27.3h14.5C125,158.3,131.5,153.2,137.9,148.1z"/>
			</g>
			<g class="st10">
				<path class="st11" d="M42.5,168c-3,2.7-5.9,5.4-8.9,8v28.8c15.2-11.6,29.7-24.1,44-36.8H42.5z"/>
			</g>
			<g class="st10">
				<path class="st11" d="M83.8,180.3c-16.8,14-33.5,28.1-50.3,42.1v4.1h6.6c14.7-11.6,29.2-23.3,43.6-35V180.3z"/>
			</g>
			<g class="st10">
				<path class="st11" d="M83.8,220.5c-3,2-6.1,4-9.2,6h9.2V220.5z"/>
			</g>
			<g class="st10">
				<path class="st11" d="M98.6,168c-3.7,3-7.3,6-10.9,9.1v11.3c8.4-6.8,16.8-13.6,25.3-20.4H98.6z"/>
			</g>
			<g class="st10">
				<path class="st11" d="M137.9,182.6c-16.7,11.9-33.3,23.8-50.3,35.3v8.6h18.2c10.5-7.1,21.2-14,32-20.8V182.6z"/>
			</g>
		</g>
	</g>
	<g>
		
			<rect x="161.1" y="118.5" transform="matrix(-1.836970e-016 1 -1 -1.836970e-016 354.6471 -40.7153)" class="st24" width="73.2" height="77"/>
	</g>
	<g>
		<path class="st7" d="M232.4,189.8H163v-65.6h69.4V189.8z M163.4,189.4H232v-64.8h-68.6V189.4z"/>
	</g>
	<g>
		<g>
			<rect x="165.6" y="126.8" class="st8" width="30.9" height="21.5"/>
		</g>
		<g>
			<rect x="198.9" y="126.8" class="st8" width="30.9" height="21.5"/>
		</g>
		<g>
			<rect x="165.6" y="151.2" class="st8" width="30.9" height="35.9"/>
		</g>
		<g>
			<rect x="198.9" y="151.2" class="st8" width="30.9" height="35.9"/>
		</g>
		<g>
			<polygon class="st9" points="168.1,131.1 196.5,131.1 196.5,126.8 165.6,126.8 165.6,148.4 168.1,148.4 			"/>
		</g>
		<g>
			<polygon class="st9" points="201.3,131.1 229.7,131.1 229.7,126.8 198.9,126.8 198.9,148.4 201.3,148.4 			"/>
		</g>
		<g>
			<polygon class="st9" points="168.1,155.5 196.5,155.5 196.5,151.2 165.6,151.2 165.6,187.1 168.1,187.1 			"/>
		</g>
		<g>
			<polygon class="st9" points="201.3,155.5 229.7,155.5 229.7,151.2 198.9,151.2 198.9,187.1 201.3,187.1 			"/>
		</g>
		<g>
			<g class="st10">
				<path class="st11" d="M196.5,147.7v-18.7c-7.6,6.3-15,12.7-22.3,19.3h21.6C196,148.2,196.3,148,196.5,147.7z"/>
			</g>
			<g>
				<path class="st8" d="M196.5,147.7c-0.2,0.2-0.5,0.4-0.7,0.6h0.7V147.7z"/>
			</g>
			<g>
				<path class="st8" d="M198.9,126.8v0.3c0.1-0.1,0.3-0.2,0.4-0.3H198.9z"/>
			</g>
			<g class="st10">
				<path class="st11" d="M199.2,126.8c-0.1,0.1-0.3,0.2-0.4,0.3v18.5c6.9-6.2,13.8-12.6,20.7-18.8H199.2z"/>
			</g>
			<g class="st10">
				<path class="st11" d="M229.7,139v-7.4c-7,5.5-13.9,11.1-20.7,16.8h8.9C221.8,145.2,225.7,142.1,229.7,139z"/>
			</g>
			<g class="st10">
				<path class="st11" d="M171.1,151.2c-1.8,1.6-3.6,3.3-5.4,4.9v17.7c9.3-7.1,18.2-14.8,27-22.6H171.1z"/>
			</g>
			<g class="st10">
				<path class="st11" d="M196.5,158.7c-10.3,8.6-20.6,17.3-30.9,25.9v2.5h4.1c9-7.1,17.9-14.3,26.8-21.5V158.7z"/>
			</g>
			<g class="st10">
				<path class="st11" d="M196.5,183.4c-1.9,1.2-3.8,2.5-5.6,3.7h5.6V183.4z"/>
			</g>
			<g class="st10">
				<path class="st11" d="M205.6,151.2c-2.2,1.9-4.5,3.7-6.7,5.6v7c5.2-4.2,10.3-8.4,15.5-12.5H205.6z"/>
			</g>
			<g class="st10">
				<path class="st11" d="M229.7,160.1c-10.2,7.3-20.4,14.6-30.9,21.7v5.3H210c6.5-4.4,13-8.6,19.7-12.8V160.1z"/>
			</g>
		</g>
	</g>
</g>
<g id="First_x5F_floor_x5F_additions">
	<g>
		<rect x="224.4" y="215" class="st15" width="36.5" height="87.6"/>
	</g>
	<g>
		<rect x="158.4" y="215" class="st25" width="138.4" height="5.5"/>
	</g>
	<g>
		<polygon class="st26" points="158.4,220.5 165.2,231.4 260.9,231.4 260.9,240.5 275.5,240.5 296.9,220.5 		"/>
	</g>
	<g>
		<rect x="239.5" y="236.2" class="st13" width="9.4" height="15.5"/>
	</g>
	<g>
		
			<rect x="238" y="240.9" transform="matrix(-1.836970e-016 1 -1 -1.836970e-016 488.1291 -0.2186)" class="st8" width="12.3" height="6.2"/>
	</g>
	<g>
		<rect x="165.2" y="231.4" class="st27" width="59.2" height="71.2"/>
	</g>
	<g>
		<rect x="165.2" y="231.4" class="st27" width="59.2" height="71.2"/>
		<path class="st28" d="M224.6,302.9H165v-71.6h59.6V302.9z M165.4,302.5h58.8v-70.8h-58.8V302.5z"/>
	</g>
	<g>
		<rect x="165.2" y="231.4" class="st29" width="60.7" height="5.7"/>
	</g>
	<g>
		<rect x="187.3" y="237.1" class="st29" width="4.8" height="65.5"/>
	</g>
	<g>
		<rect x="170" y="241.8" class="st30" width="13.1" height="54.5"/>
	</g>
	<g>
		<rect x="196.9" y="241.8" class="st30" width="21.8" height="54.5"/>
	</g>
	<g>
		<polygon class="st31" points="173.3,245.9 183,245.9 183,241.8 170,241.8 170,296.2 173.3,296.2 		"/>
	</g>
	<g>
		<polygon class="st31" points="200.2,245.9 218.7,245.9 218.7,241.8 196.9,241.8 196.9,296.2 200.2,296.2 		"/>
	</g>
	<g>
		<polygon class="st32" points="260.9,304.6 158.4,304.6 165.2,302.7 260.9,302.7 		"/>
	</g>
	<g>
		<rect x="158.4" y="304.6" class="st33" width="92.3" height="5.9"/>
	</g>
	<g>
		<rect x="158.4" y="310.5" class="st32" width="92.3" height="3"/>
	</g>
	<g>
		<rect x="158.4" y="313.5" class="st33" width="92.3" height="5.9"/>
	</g>
	<g>
		<rect x="158.4" y="319.4" class="st32" width="92.3" height="2.9"/>
	</g>
	<g>
		<rect x="158.4" y="322.3" class="st33" width="92.3" height="5.9"/>
	</g>
	<g>
		<rect x="158.4" y="328.2" class="st32" width="92.3" height="3"/>
	</g>
	<g>
		<rect x="158.4" y="331.2" class="st33" width="92.3" height="5.9"/>
	</g>
	<g>
		<rect x="158.4" y="337.1" class="st32" width="92.3" height="2.9"/>
	</g>
	<g>
		<rect x="158.4" y="340" class="st33" width="92.3" height="5.9"/>
	</g>
	<g>
		<rect x="158.4" y="348.9" class="st33" width="92.3" height="4.8"/>
	</g>
	<g>
		<rect x="158.4" y="345.9" class="st32" width="92.3" height="2.9"/>
	</g>
	<g>
		<polygon class="st34" points="158.4,220.5 165.2,231.4 165.2,302.7 158.4,304.6 		"/>
	</g>
	<g>
		<g class="st10">
			<path class="st11" d="M183,294.5c-0.7,0.6-1.4,1.1-2.2,1.7h2.2V294.5z"/>
		</g>
		<g class="st10">
			<path class="st11" d="M183,264.8c-4.3,4-8.6,8-13.1,11.9v16.8c4.3-4.6,8.6-9.1,13.1-13.5V264.8z"/>
		</g>
		<g class="st10">
			<path class="st11" d="M218.7,241.8h-12c-3.3,3.2-6.5,6.4-9.8,9.6v15.3c7.1-6.6,14.4-13,21.8-19.3V241.8z"/>
		</g>
		<g class="st10">
			<path class="st11" d="M218.7,266.2c-7.3,5.8-14.6,11.6-21.8,17.3v7.4c7.3-5.6,14.6-11.1,21.8-16.6V266.2z"/>
		</g>
	</g>
	<g>
		<polyline class="st27" points="225.9,237.1 189.7,237.1 165.2,237.1 		"/>
		<rect x="165.2" y="236.9" class="st28" width="60.7" height="0.4"/>
	</g>
	<g>
		<line class="st27" x1="189.7" y1="302.1" x2="189.7" y2="237.1"/>
		<rect x="189.5" y="237.1" class="st28" width="0.4" height="65"/>
	</g>
	<g>
		<line class="st27" x1="187.3" y1="302.1" x2="187.3" y2="237.1"/>
		<rect x="187.1" y="237.1" class="st28" width="0.4" height="65"/>
	</g>
	<g>
		<line class="st27" x1="192.1" y1="302.1" x2="192.1" y2="237.1"/>
		<rect x="191.9" y="237.1" class="st28" width="0.4" height="65"/>
	</g>
	<g>
		<rect x="250.7" y="304.6" class="st35" width="10.2" height="28.8"/>
	</g>
	<rect x="24.6" y="248.9" class="st13" width="133.8" height="55.6"/>
	<g>
		<g>
			<rect x="50.2" y="258.8" class="st15" width="71.1" height="31.2"/>
		</g>
		<g>
			<path class="st16" d="M121.5,290.2H50v-31.6h71.5V290.2z M50.4,289.8h70.7V259H50.4V289.8z"/>
		</g>
		<g>
			
				<rect x="92.1" y="260.8" transform="matrix(-1.836970e-016 1 -1 -1.836970e-016 380.5125 168.3232)" class="st8" width="28" height="27.2"/>
		</g>
		<g>
			
				<rect x="51.4" y="260.8" transform="matrix(-1.836970e-016 1 -1 -1.836970e-016 339.7787 209.0571)" class="st8" width="28" height="27.2"/>
		</g>
		<g>
			<polygon class="st9" points="95,264.9 119.7,264.9 119.7,260.4 92.5,260.4 92.5,288.4 95,288.4 			"/>
		</g>
		<g>
			<polygon class="st9" points="54.3,264.9 78.9,264.9 78.9,260.4 51.8,260.4 51.8,288.4 54.3,288.4 			"/>
		</g>
		<g class="st10">
			<path class="st11" d="M92.5,260.4v8.7c5.7-2.9,11.4-5.8,17.1-8.7H92.5z"/>
		</g>
		<g class="st10">
			<path class="st11" d="M119.7,262.7c-9,4.9-18.1,9.6-27.2,14.5v6.3c9-5.5,18-10.8,27.2-15.9V262.7z"/>
		</g>
		<g class="st10">
			<path class="st11" d="M78.9,260.4h-5c-7.5,4.4-14.8,9.1-22.1,14v13.9h0.4c9.1-3.9,18-8.1,26.8-12.4V260.4z"/>
		</g>
		<g class="st10">
			<path class="st11" d="M78.9,284.8c-2,1.2-4.1,2.4-6.1,3.6h6.1V284.8z"/>
		</g>
	</g>
	<g>
		<rect x="85.5" y="258.8" class="st16" width="0.4" height="31.2"/>
	</g>
	<line class="st13" x1="158.3" y1="296.2" x2="24.6" y2="296.2"/>
	<rect x="24.6" y="296" class="st14" width="133.7" height="0.4"/>
	<line class="st13" x1="158.3" y1="253.7" x2="24.6" y2="253.7"/>
	<rect x="24.6" y="253.5" class="st14" width="133.7" height="0.4"/>
	<g>
		<rect x="14.3" y="304.6" class="st0" width="133.8" height="49.1"/>
	</g>
	<g>
		<rect x="13.8" y="329.1" class="st3" width="61.5" height="10.9"/>
	</g>
	<g>
		<rect x="33.3" y="313.9" class="st3" width="45.6" height="6"/>
	</g>
	<g>
		<rect x="102.4" y="308.4" class="st3" width="44.1" height="9"/>
	</g>
	<g>
		<rect x="38.3" y="320.8" class="st1" width="81.4" height="7.6"/>
	</g>
	<g>
		<rect x="13.8" y="348.9" class="st1" width="81.4" height="4.6"/>
	</g>
	<g>
		<rect x="68.7" y="340.9" class="st2" width="50.3" height="6.5"/>
	</g>
	<g>
		<rect x="93.9" y="330.2" class="st2" width="50.3" height="6.5"/>
	</g>
	<g>
		<rect x="13.8" y="306.4" class="st2" width="50.3" height="6.5"/>
	</g>
	
		<rect x="148.2" y="304.6" transform="matrix(-1 -1.224647e-016 1.224647e-016 -1 306.5904 637.9724)" class="st35" width="10.3" height="28.8"/>
	<g>
		<path class="st32" d="M158.5,353.9h-13.8v-20.7h13.8V353.9z M145.1,353.5h13v-19.9h-13V353.5z"/>
	</g>
	<g>
		
			<rect x="144.9" y="333.4" transform="matrix(-1 -1.224647e-016 1.224647e-016 -1 303.2656 687.1005)" class="st35" width="13.4" height="20.3"/>
	</g>
	<g>
		<path class="st32" d="M264.3,353.9h-13.8v-20.7h13.8V353.9z M250.9,353.5h13v-19.9h-13V353.5z"/>
	</g>
	<g>
		<rect x="250.7" y="333.4" class="st35" width="13.4" height="20.3"/>
	</g>
</g>
</svg>
